<svg width="13.300781" height="13.299805" viewBox="0 0 13.3008 13.2998" fill="none" xmlns="http://www.w3.org/2000/svg" xmlns:xlink="http://www.w3.org/1999/xlink">
	<path id="path" d="M12.02 8.66L12 8.64C12 8.28 12.28 8 12.65 8C13.01 8 13.3 8.28 13.3 8.64L13.28 8.66L12.02 8.66ZM0.02 8.66L0 8.64C0 8.28 0.28 8 0.65 8C1.01 8 1.3 8.28 1.3 8.64L1.28 8.66L0.02 8.66Z" fill="#000000" fill-opacity="0" fill-rule="nonzero"/>
	<path id="path" d="M12.65 8.64L12.65 11.31C12.65 11.68 12.52 11.99 12.25 12.25C12 12.51 11.68 12.64 11.31 12.64L1.98 12.64C1.61 12.64 1.3 12.51 1.04 12.25C0.78 11.99 0.65 11.68 0.65 11.31L0.65 8.64" stroke="#000000" stroke-opacity="1.000000" stroke-width="1.300000" stroke-linejoin="round" stroke-linecap="round"/>
	<path id="polyline" d="M2.88 5.77L2.85 5.77C2.6 5.51 2.6 5.11 2.85 4.85C3.11 4.59 3.51 4.59 3.77 4.85L3.77 4.88L2.88 5.77ZM9.52 4.88L9.52 4.85C9.78 4.59 10.18 4.59 10.44 4.85C10.7 5.11 10.7 5.51 10.44 5.77L10.41 5.77L9.52 4.88Z" fill="#000000" fill-opacity="0" fill-rule="nonzero"/>
	<path id="polyline" d="M3.31 5.31L6.65 8.64L9.98 5.31" stroke="#000000" stroke-opacity="1.000000" stroke-width="1.300000" stroke-linejoin="round" stroke-linecap="round"/>
	<line id="line" x1="6.650391" y1="8.649902" x2="6.650391" y2="0.649902" stroke="#000000" stroke-opacity="1.000000" stroke-width="1.300000"/>
</svg>
