<svg width="14.000000" height="14.000000" viewBox="0 0 14 14" fill="none" xmlns="http://www.w3.org/2000/svg" xmlns:xlink="http://www.w3.org/1999/xlink">
	<path id="path" d="M1.55 14C1.12 14 0.76 13.84 0.45 13.54C0.15 13.23 0 12.87 0 12.44L0 1.55C0 1.12 0.15 0.76 0.45 0.45C0.76 0.15 1.12 0 1.55 0L7 0L7 1.55L1.55 1.55L1.55 12.44L7 12.44L7 14L1.55 14ZM10.11 10.88L9.04 9.76L11.02 7.77L4.66 7.77L4.66 6.22L11.02 6.22L9.04 4.23L10.11 3.11L14 7L10.11 10.88Z" fill="#000000" fill-opacity="1.000000" fill-rule="nonzero"/>
</svg>
