<svg width="16.000000" height="16.000000" viewBox="0 0 16 16" fill="none" xmlns="http://www.w3.org/2000/svg" xmlns:xlink="http://www.w3.org/1999/xlink">
	<path id="path" d="M8 16C6.9 16 5.87 15.79 4.9 15.37C3.92 14.95 3.07 14.37 2.34 13.64C1.62 12.92 1.04 12.07 0.62 11.1C0.2 10.12 0 9.09 0 8C0 6.89 0.21 5.85 0.65 4.87C1.08 3.9 1.66 3.06 2.41 2.33C3.15 1.62 4.01 1.04 5 0.62C5.98 0.2 7.04 0 8.16 0C9.22 0 10.23 0.18 11.17 0.54C12.12 0.91 12.95 1.42 13.66 2.06C14.38 2.71 14.95 3.48 15.37 4.37C15.79 5.25 16 6.21 16 7.24C16 8.77 15.53 9.95 14.59 10.77C13.66 11.58 12.53 12 11.2 12L9.71 12C9.59 12 9.51 12.03 9.46 12.1C9.42 12.16 9.4 12.24 9.4 12.31C9.4 12.48 9.5 12.71 9.7 13C9.9 13.31 10 13.65 10 14.04C10 14.7 9.81 15.2 9.45 15.52C9.08 15.83 8.59 16 8 16ZM3.59 8.79C3.94 8.79 4.23 8.68 4.45 8.45C4.68 8.23 4.79 7.94 4.79 7.6C4.79 7.25 4.68 6.96 4.45 6.74C4.23 6.51 3.94 6.39 3.59 6.39C3.25 6.39 2.96 6.51 2.74 6.74C2.51 6.96 2.4 7.25 2.4 7.6C2.4 7.94 2.51 8.23 2.74 8.45C2.96 8.68 3.25 8.79 3.59 8.79ZM6 5.6C6.34 5.6 6.63 5.48 6.86 5.25C7.08 5.03 7.2 4.74 7.2 4.39C7.2 4.05 7.08 3.76 6.86 3.54C6.63 3.31 6.34 3.2 6 3.2C5.65 3.2 5.36 3.31 5.13 3.54C4.91 3.76 4.79 4.05 4.79 4.39C4.79 4.74 4.91 5.03 5.13 5.25C5.36 5.48 5.65 5.6 6 5.6ZM10 5.6C10.34 5.6 10.63 5.48 10.86 5.25C11.08 5.03 11.2 4.74 11.2 4.39C11.2 4.05 11.08 3.76 10.86 3.54C10.63 3.31 10.34 3.2 10 3.2C9.65 3.2 9.36 3.31 9.13 3.54C8.91 3.76 8.79 4.05 8.79 4.39C8.79 4.74 8.91 5.03 9.13 5.25C9.36 5.48 9.65 5.6 10 5.6ZM12.4 8.79C12.74 8.79 13.03 8.68 13.25 8.45C13.48 8.23 13.59 7.94 13.59 7.6C13.59 7.25 13.48 6.96 13.25 6.74C13.03 6.51 12.74 6.39 12.4 6.39C12.05 6.39 11.76 6.51 11.54 6.74C11.31 6.96 11.2 7.25 11.2 7.6C11.2 7.94 11.31 8.23 11.54 8.45C11.76 8.68 12.05 8.79 12.4 8.79ZM8 14.39C8.12 14.39 8.21 14.36 8.29 14.29C8.36 14.23 8.4 14.14 8.4 14.04C8.4 13.85 8.29 13.63 8.09 13.37C7.9 13.12 7.79 12.74 7.79 12.24C7.79 11.68 7.99 11.23 8.37 10.89C8.76 10.56 9.24 10.39 9.79 10.39L11.2 10.39C12.08 10.39 12.83 10.14 13.46 9.62C14.08 9.11 14.4 8.31 14.4 7.24C14.4 5.62 13.78 4.28 12.54 3.2C11.31 2.13 9.85 1.6 8.16 1.6C6.34 1.6 4.79 2.22 3.51 3.45C2.24 4.7 1.59 6.21 1.59 8C1.59 9.77 2.22 11.28 3.46 12.52C4.71 13.77 6.22 14.39 8 14.39Z" fill="#000000" fill-opacity="1.000000" fill-rule="nonzero"/>
</svg>
