<svg width="18.000000" height="22.000000" viewBox="0 0 18 22" fill="none" xmlns="http://www.w3.org/2000/svg" xmlns:xlink="http://www.w3.org/1999/xlink">
	<desc>
			Created with Pixso.
	</desc>
	<defs/>
	<path id="path" d="M11 1L3 1C2.44 1 1.97 1.19 1.58 1.58C1.19 1.97 1 2.44 1 3L1 19C1 19.55 1.19 20.02 1.58 20.41C1.97 20.8 2.44 21 3 21L15 21C15.55 21 16.02 20.8 16.41 20.41C16.8 20.02 17 19.55 17 19L17 7L11 1Z" fill="#000000" fill-opacity="0" fill-rule="nonzero"/>
	<path id="path" d="M3 1C2.44 1 1.97 1.19 1.58 1.58C1.19 1.97 1 2.44 1 3L1 19C1 19.55 1.19 20.02 1.58 20.41C1.97 20.8 2.44 21 3 21L15 21C15.55 21 16.02 20.8 16.41 20.41C16.8 20.02 17 19.55 17 19L17 7L11 1L3 1Z" stroke="#000000" stroke-opacity="1.000000" stroke-width="2.000000" stroke-linejoin="round"/>
	<path id="polyline" d="M10.01 1.02L10 1C10 0.43 10.44 0 11 0C11.55 0 12 0.43 12 1L11.98 1.02L10.01 1.02ZM16.98 6.02L17 6C17.55 6 18 6.43 18 7C18 7.56 17.55 8 17 8L16.98 7.97L16.98 6.02Z" fill="#000000" fill-opacity="0" fill-rule="nonzero"/>
	<path id="polyline" d="M11 1L11 7L17 7" stroke="#000000" stroke-opacity="1.000000" stroke-width="2.000000" stroke-linejoin="round" stroke-linecap="round"/>
	<line id="line" x1="13.000000" y1="12.000000" x2="5.000000" y2="12.000000" stroke="#000000" stroke-opacity="1.000000" stroke-width="2.000000"/>
	<line id="line" x1="13.000000" y1="16.000000" x2="5.000000" y2="16.000000" stroke="#000000" stroke-opacity="1.000000" stroke-width="2.000000"/>
	<path id="polyline" d="M6.98 7.02L7 7C7.55 7 8 7.43 8 8C8 8.56 7.55 9 7 9L6.98 8.97L6.98 7.02ZM5.01 8.97L5 9C4.44 9 4 8.56 4 8C4 7.43 4.44 7 5 7L5.01 7.02L5.01 8.97Z" fill="#000000" fill-opacity="0" fill-rule="nonzero"/>
	<path id="polyline" d="M7 8L6 8L5 8" stroke="#000000" stroke-opacity="1.000000" stroke-width="2.000000" stroke-linejoin="round" stroke-linecap="round"/>
</svg>
