<svg width="13.333984" height="14.666504" viewBox="0 0 13.334 14.6665" fill="none" xmlns="http://www.w3.org/2000/svg" xmlns:xlink="http://www.w3.org/1999/xlink">
	<path id="polyline" d="M0.68 3.97L0.66 4C0.29 4 0 3.7 0 3.33C0 2.95 0.29 2.66 0.66 2.66L0.68 2.68L0.68 3.97ZM12.64 2.68L12.66 2.66C13.04 2.66 13.33 2.95 13.33 3.33C13.33 3.7 13.04 4 12.66 4L12.64 3.97L12.64 2.68Z" fill="#000000" fill-opacity="0" fill-rule="nonzero"/>
	<path id="polyline" d="M0.66 3.33L2 3.33L12.66 3.33" stroke="#FF2222" stroke-opacity="1.000000" stroke-width="1.333333" stroke-linejoin="round" stroke-linecap="round"/>
	<path id="path" d="M10.68 3.35L10.66 3.33C10.66 2.95 10.96 2.66 11.33 2.66C11.7 2.66 12 2.95 12 3.33L11.98 3.35L10.68 3.35ZM1.35 3.35L1.33 3.33C1.33 2.95 1.62 2.66 2 2.66C2.37 2.66 2.66 2.95 2.66 3.33L2.64 3.35L1.35 3.35ZM4.64 3.31L4.66 3.33C4.66 3.7 4.37 4 4 4C3.62 4 3.33 3.7 3.33 3.33L3.35 3.31L4.64 3.31ZM9.98 3.31L10 3.33C10 3.7 9.7 4 9.33 4C8.95 4 8.66 3.7 8.66 3.33L8.68 3.31L9.98 3.31Z" fill="#000000" fill-opacity="0" fill-rule="nonzero"/>
	<path id="path" d="M11.33 3.33L11.33 12.66C11.33 13.03 11.2 13.34 10.94 13.6C10.68 13.86 10.36 14 10 14L3.33 14C2.96 14 2.65 13.86 2.39 13.6C2.12 13.34 2 13.03 2 12.66L2 3.33M4 3.33L4 2C4 1.63 4.12 1.31 4.39 1.05C4.65 0.79 4.96 0.66 5.33 0.66L8 0.66C8.36 0.66 8.68 0.79 8.94 1.05C9.2 1.31 9.33 1.63 9.33 2L9.33 3.33" stroke="#FF2222" stroke-opacity="1.000000" stroke-width="1.333333" stroke-linejoin="round" stroke-linecap="round"/>
</svg>
