<svg width="20.000000" height="22.000000" viewBox="0 0 20 22" fill="none" xmlns="http://www.w3.org/2000/svg" xmlns:xlink="http://www.w3.org/1999/xlink">
	<desc>
			Created with Pixso.
	</desc>
	<defs/>
	<path id="polyline" d="M1.01 5.97L1 6C0.44 6 0 5.56 0 5C0 4.43 0.44 4 1 4L1.01 4.02L1.01 5.97ZM18.98 4.02L19 4C19.55 4 20 4.43 20 5C20 5.56 19.55 6 19 6L18.98 5.97L18.98 4.02Z" fill="#000000" fill-opacity="0" fill-rule="nonzero"/>
	<path id="polyline" d="M1 5L3 5L19 5" stroke="#000000" stroke-opacity="1.000000" stroke-width="2.000000" stroke-linejoin="round" stroke-linecap="round"/>
	<path id="path" d="M16.01 5.02L16 5C16 4.43 16.44 4 17 4C17.55 4 18 4.43 18 5L17.98 5.02L16.01 5.02ZM2.01 5.02L2 5C2 4.43 2.44 4 3 4C3.55 4 4 4.43 4 5L3.98 5.02L2.01 5.02ZM6.98 4.97L7 5C7 5.56 6.55 6 6 6C5.44 6 5 5.56 5 5L5.01 4.97L6.98 4.97ZM14.98 4.97L15 5C15 5.56 14.55 6 14 6C13.44 6 13 5.56 13 5L13.01 4.97L14.98 4.97Z" fill="#000000" fill-opacity="0" fill-rule="nonzero"/>
	<path id="path" d="M17 5L17 19C17 19.55 16.8 20.02 16.41 20.41C16.02 20.8 15.55 21 15 21L5 21C4.44 21 3.97 20.8 3.58 20.41C3.19 20.02 3 19.55 3 19L3 5M6 5L6 3C6 2.44 6.19 1.97 6.58 1.58C6.97 1.19 7.44 1 8 1L12 1C12.55 1 13.02 1.19 13.41 1.58C13.8 1.97 14 2.44 14 3L14 5" stroke="#000000" stroke-opacity="1.000000" stroke-width="2.000000" stroke-linejoin="round" stroke-linecap="round"/>
	<line id="line" x1="8.000000" y1="10.000000" x2="8.000000" y2="16.000000" stroke="#000000" stroke-opacity="1.000000" stroke-width="2.000000"/>
	<line id="line" x1="12.000000" y1="10.000000" x2="12.000000" y2="16.000000" stroke="#000000" stroke-opacity="1.000000" stroke-width="2.000000"/>
</svg>
